<?xml version="1.0" encoding="utf-8"?>
<!-- Generator: Adobe Illustrator 16.0.0, SVG Export Plug-In . SVG Version: 6.00 Build 0)  -->
<!DOCTYPE svg PUBLIC "-//W3C//DTD SVG 1.1//EN" "http://www.w3.org/Graphics/SVG/1.1/DTD/svg11.dtd">
<svg version="1.1" id="Calque_1" xmlns="http://www.w3.org/2000/svg" xmlns:xlink="http://www.w3.org/1999/xlink" x="0px" y="0px"
	 width="1024px" height="768px" viewBox="0 0 1024 768" enable-background="new 0 0 1024 768" xml:space="preserve">
<g>
	<g>
		<g>
			<path fill="#1A171B" d="M370.002,365.043V340.21l-8.976,23.635h-2.248l-8.911-23.635v24.833h-2.917v-31.787h2.971l10.013,26.186
				l10.012-26.186h2.971v31.787H370.002z"/>
			<path fill="#1A171B" d="M379.198,350.866c0-5.765,3.141-9.044,8.956-9.044c5.672,0,8.778,3.556,8.778,9.044v5.644
				c0,4.496-2.379,8.942-8.802,8.942c-6.383,0-8.932-4.417-8.932-8.943V350.866z M394.075,350.866c0-4.133-2.131-6.644-5.945-6.644
				c-4.008,0-6.074,2.268-6.074,6.645v5.643c0,3.454,1.787,6.56,6.074,6.56c4.271,0,5.945-3.1,5.945-6.56L394.075,350.866z"/>
			<path fill="#1A171B" d="M404.854,345.452c1.381-2.486,3.682-3.604,6.938-3.604c0.933,0,1.805,0.084,2.605,0.316l-0.163,2.399
				c-1.062-0.267-2.081-0.403-3.013-0.317c-3.834,0.1-5.914,2.383-5.914,6.651v14.147h-2.855v-22.892h2.302L404.854,345.452z"/>
			<path fill="#1A171B" d="M417.655,350.119c0-5.241,3.405-8.231,8.828-8.231c5.508,0,8.329,3.166,8.329,8.133v4.605h-14.368v3.766
				c0,3.42,2.169,4.869,5.531,4.869c2.39,0,4.479-0.653,6.2-1.821l1.57,1.441c-1.985,1.62-4.592,2.664-7.973,2.664
				c-5.276,0-8.118-2.882-8.118-7.407V350.119z M432.108,349.924c0-4.361-2.912-5.702-5.685-5.702c-3,0-5.911,1.487-5.911,5.799
				v2.621h11.596V349.924z"/>
			<path fill="#1A171B" d="M450.243,340.309c0-5.668,3.767-7.542,7.333-7.542c0.671,0,1.31,0.063,1.947,0.176v2.374
				c-0.749-0.118-1.421-0.18-1.921-0.133c-2.42,0.1-4.499,1.605-4.501,5.445v1.664h6.006v2.287H453.1v20.464h-2.857V340.309z"/>
			<path fill="#1A171B" d="M466.057,345.452c1.381-2.486,3.682-3.604,6.938-3.604c0.933,0,1.805,0.084,2.605,0.316l-0.163,2.399
				c-1.061-0.267-2.081-0.403-3.013-0.317c-3.834,0.1-5.914,2.383-5.914,6.651v14.147h-2.855v-22.892h2.302L466.057,345.452z"/>
			<path fill="#1A171B" d="M478.857,350.119c0-5.241,3.405-8.231,8.828-8.231c5.508,0,8.329,3.166,8.329,8.133v4.605h-14.368v3.766
				c0,3.42,2.169,4.869,5.531,4.869c2.39,0,4.479-0.653,6.2-1.821l1.57,1.441c-1.985,1.62-4.592,2.664-7.973,2.664
				c-5.276,0-8.118-2.882-8.118-7.407V350.119z M493.311,349.924c0-4.361-2.912-5.702-5.685-5.702c-3,0-5.911,1.487-5.911,5.799
				v2.621h11.596V349.924z"/>
			<path fill="#1A171B" d="M500.515,350.119c0-5.241,3.405-8.231,8.828-8.231c5.508,0,8.328,3.166,8.328,8.133v4.605h-14.367v3.766
				c0,3.42,2.169,4.869,5.531,4.869c2.39,0,4.478-0.653,6.201-1.821l1.57,1.441c-1.985,1.62-4.593,2.664-7.973,2.664
				c-5.276,0-8.118-2.882-8.118-7.407V350.119z M514.969,349.924c0-4.361-2.912-5.702-5.686-5.702c-3,0-5.911,1.487-5.911,5.799
				v2.621h11.597V349.924z"/>
			<path fill="#1A171B" d="M537.471,365.043l-0.059-1.181c-1.882,1.056-4.229,1.544-6.471,1.544c-4.459,0-8.77-1.95-8.77-7.654
				v-8.038c0-5.983,4.253-7.803,8.477-7.803c2.179,0,4.536,0.565,6.268,1.286v-9.942h2.857v31.787L537.471,365.043z
				 M536.916,345.392c-1.397-0.631-3.646-1.175-5.818-1.175c-3.436,0-6.069,1.411-6.069,5.663v7.915
				c0.013,3.711,2.747,5.311,6.283,5.311c1.997,0,4.025-0.474,5.604-1.273V345.392z"/>
			<path fill="#1A171B" d="M545.282,350.866c0-5.765,3.141-9.044,8.955-9.044c5.673,0,8.778,3.556,8.778,9.044v5.644
				c0,4.496-2.379,8.942-8.803,8.942c-6.382,0-8.931-4.417-8.931-8.943V350.866z M560.159,350.866c0-4.133-2.132-6.644-5.946-6.644
				c-4.008,0-6.074,2.268-6.074,6.645v5.643c0,3.454,1.787,6.56,6.074,6.56c4.271,0,5.945-3.1,5.945-6.56L560.159,350.866z"/>
			<path fill="#1A171B" d="M570.879,343.44c1.986-1.028,4.18-1.528,6.214-1.528c2.638,0,4.985,0.834,6.21,2.397
				c2.39-1.427,4.488-2.397,7.102-2.397c4.032,0,7.299,2.613,7.299,7.705v15.426h-2.835v-15.196c0-3.862-1.919-5.598-4.894-5.598
				c-1.64,0-2.506,0.222-5.74,1.774c0.396,0.803,0.416,2.792,0.416,4.016v15.003h-2.835v-16.236c0-3.309-2.113-4.557-5.056-4.557
				c-1.976,0-4.026,0.543-5.389,1.24v19.553h-2.835v-22.75h2.285L570.879,343.44z"/>
			<path fill="#1A171B" d="M613.92,340.309c0-5.668,3.767-7.542,7.332-7.542c0.672,0,1.31,0.063,1.946,0.176v2.374
				c-0.748-0.118-1.421-0.18-1.921-0.133c-2.42,0.1-4.498,1.605-4.501,5.445v1.664h6.007v2.287h-6.007v20.464h-2.856V340.309z"/>
			<path fill="#1A171B" d="M626.554,350.866c0-5.765,3.141-9.044,8.955-9.044c5.673,0,8.778,3.556,8.778,9.044v5.644
				c0,4.496-2.379,8.942-8.803,8.942c-6.382,0-8.931-4.417-8.931-8.943V350.866z M641.431,350.866c0-4.133-2.132-6.644-5.946-6.644
				c-4.008,0-6.074,2.268-6.074,6.645v5.643c0,3.454,1.787,6.56,6.074,6.56c4.271,0,5.945-3.1,5.945-6.56L641.431,350.866z"/>
			<path fill="#1A171B" d="M652.209,345.452c1.382-2.486,3.683-3.604,6.939-3.604c0.933,0,1.805,0.084,2.604,0.316l-0.163,2.399
				c-1.061-0.267-2.08-0.403-3.013-0.317c-3.834,0.1-5.914,2.383-5.914,6.651v14.147h-2.855v-22.892h2.302L652.209,345.452z"/>
			<path fill="#E1001A" d="M693.381,365.042l-4.835-17.029l-4.803,17.029h-2.824l-7.415-22.748h2.991l5.779,18.765l5.062-18.765
				h2.388l5.095,18.732l5.812-18.732h2.993l-7.385,22.748H693.381z"/>
			<path fill="#E1001A" d="M706.6,350.119c0-5.241,3.404-8.231,8.827-8.231c5.508,0,8.329,3.166,8.329,8.133v4.605h-14.368v3.766
				c0,3.42,2.17,4.869,5.531,4.869c2.39,0,4.479-0.653,6.2-1.821l1.57,1.441c-1.985,1.62-4.592,2.664-7.973,2.664
				c-5.275,0-8.117-2.882-8.117-7.407V350.119z M721.053,349.924c0-4.361-2.911-5.702-5.686-5.702c-2.999,0-5.911,1.487-5.911,5.799
				v2.621h11.597V349.924z"/>
			<path fill="#E1001A" d="M731.894,343.197c1.73-0.72,4.088-1.286,6.268-1.286c4.224,0,8.476,1.82,8.476,7.803v8.038
				c0,5.77-4.436,7.654-8.77,7.654c-2.241,0-4.588-0.488-6.471-1.544l-0.059,1.181h-2.302v-31.787h2.856L731.894,343.197z
				 M743.78,349.88c0-4.252-2.634-5.663-6.069-5.663c-2.173,0-4.422,0.543-5.818,1.175v16.44c1.58,0.799,3.607,1.273,5.604,1.273
				c3.536,0,6.271-1.6,6.283-5.312V349.88z"/>
			<path fill="#E1001A" d="M764.722,343.506c1.883-1.056,4.229-1.564,6.471-1.564c4.459,0,8.77,1.97,8.77,7.674v8.038
				c0,5.938-4.189,7.798-8.465,7.798c-2.182,0-4.545-0.559-6.279-1.281v10.045h-2.856v-31.891h2.302L764.722,343.506z
				 M777.105,349.574c-0.013-3.711-2.747-5.312-6.283-5.312c-1.997,0-4.024,0.474-5.604,1.273v16.44
				c1.396,0.631,3.646,1.175,5.818,1.175c3.436,0,6.069-1.411,6.069-5.663V349.574z"/>
			<path fill="#E1001A" d="M800.543,365.043l-0.06-1.181c-1.942,1.054-4.286,1.544-6.502,1.544c-4.49,0-8.737-1.989-8.737-7.688
				v-15.426h2.856v15.293c0,3.959,2.698,5.532,6.232,5.532c2.01,0,4.063-0.478,5.654-1.272v-19.553h2.857v22.75H800.543z"/>
			<path fill="#E1001A" d="M811.757,343.197c1.73-0.72,4.088-1.286,6.268-1.286c4.224,0,8.476,1.82,8.476,7.803v8.038
				c0,5.77-4.436,7.654-8.77,7.654c-2.241,0-4.588-0.488-6.471-1.544l-0.059,1.181h-2.302v-31.787h2.856L811.757,343.197z
				 M823.644,349.88c0-4.252-2.634-5.663-6.069-5.663c-2.173,0-4.422,0.543-5.818,1.175v16.44c1.58,0.799,3.607,1.273,5.604,1.273
				c3.536,0,6.271-1.6,6.283-5.312V349.88z"/>
			<path fill="#E1001A" d="M832.235,365.043v-31.787h2.857v31.787H832.235z"/>
			<path fill="#E1001A" d="M844.562,334.4c0,0.881-0.568,1.621-1.579,1.621c-0.943,0-1.62-0.677-1.62-1.621
				c0-1.011,0.739-1.579,1.62-1.579C843.927,332.821,844.562,333.456,844.562,334.4z M841.532,365.042v-22.748h2.857v22.748H841.532
				z"/>
			<path fill="#E1001A" d="M852.313,358.99c0.204,2.199,1.9,4.257,5.775,4.257c3.354,0,5.462-1.827,5.462-4.229
				c0-2.9-2.871-3.747-6.058-4.656c-3.77-1.01-7.349-2.174-7.349-6.203c0-3.264,2.206-6.369,7.925-6.369
				c5.665,0,7.902,3.078,7.902,6.377h-2.761c0.001-1.83-1.361-3.978-5.13-3.978s-5.132,2.147-5.129,3.978
				c0.004,2.239,2.45,3.136,5.568,3.998c4.315,1.11,7.91,2.573,7.91,6.857c0,3.566-2.765,6.611-8.159,6.611
				c-5.797,0-8.589-3.029-8.752-6.644L852.313,358.99z"/>
			<path fill="#E1001A" d="M874.638,343.263c1.828-0.915,4.022-1.351,6.104-1.351c4.338,0,8.642,1.872,8.642,7.705v15.426h-2.857
				V349.75c0-3.992-2.633-5.565-6.134-5.565c-2.043,0-4.129,0.511-5.753,1.305v19.553h-2.857v-31.787h2.857L874.638,343.263z"/>
			<path fill="#E1001A" d="M898.863,334.4c0,0.881-0.568,1.621-1.579,1.621c-0.943,0-1.62-0.677-1.62-1.621
				c0-1.011,0.739-1.579,1.62-1.579C898.229,332.821,898.863,333.456,898.863,334.4z M895.834,365.042v-22.748h2.857v22.748H895.834
				z"/>
			<path fill="#E1001A" d="M907.514,343.473c1.957-1.061,4.321-1.561,6.527-1.561c4.48,0,8.713,2.017,8.713,7.705v15.426h-2.857
				V349.75c0-3.959-2.698-5.533-6.231-5.533c-2.011,0-4.063,0.479-5.655,1.272v19.553h-2.857v-22.75h2.302L907.514,343.473z"/>
			<path fill="#E1001A" d="M928.028,349.607c0-5.771,4.436-7.674,8.77-7.674c2.241,0,4.589,0.508,6.471,1.564l0.059-1.181h2.303
				v24.361c0,5.086-3.302,7.356-7.721,7.356c-2.924,0-5.654-0.863-8.011-2.361l1.173-1.68c1.839,1.1,3.86,1.773,6.137,1.773
				c3.362,0,5.506-1.239,5.564-4.861v-3.122c-1.669,0.792-4.097,1.26-6.345,1.26c-4.498-0.013-8.399-1.949-8.399-7.675V349.607z
				 M942.772,345.527c-1.579-0.799-3.607-1.273-5.604-1.273c-3.536,0-6.27,1.6-6.283,5.311v7.622c0,4.252,2.634,5.663,6.069,5.663
				c2.173,0,4.421-0.543,5.818-1.175V345.527z"/>
		</g>
	</g>
	<g>
		<g>
			<path fill="#1A171B" d="M343.184,212.581l17.594,75.774h2.787l20.729-74.033h13.587l20.729,74.033h2.961l17.419-75.774h13.064
				l-20.729,87.097h-21.774l-18.464-68.11l-18.465,68.11h-21.774l-20.729-87.097H343.184z"/>
			<path fill="#1A171B" d="M533.406,288.355l0.35,10.278c0,0-19.859,2.787-33.968,2.787c-25.955,0-34.49-15.155-34.49-44.768
				c0-33.097,14.284-45.813,36.406-45.813c23.167,0,35.013,12.193,35.013,40.761l-0.697,9.929h-57.484
				c0,18.639,5.749,28.394,22.82,28.394C514.42,289.923,533.406,288.355,533.406,288.355z M523.652,251.078
				c0-21.6-6.619-29.265-21.949-29.265c-14.807,0-23.168,8.187-23.342,29.265H523.652z"/>
			<path fill="#1A171B" d="M627.297,254.735c0,34.665-9.406,46.685-41.109,46.685c-10.451,0-29.09-1.917-29.09-1.917V174.606h12.891
				v42.329c0,0,13.238-6.097,25.605-6.097C619.285,210.839,627.297,223.381,627.297,254.735z M614.059,254.735
				c0-22.471-4.529-32.226-19.857-32.226c-12.02,0-24.213,5.052-24.213,5.052v61.316c0,0,11.322,0.871,16.025,0.871
				C609.879,289.749,614.059,279.123,614.059,254.735z"/>
			<path fill="#1A171B" d="M706.555,225.297c0,0-19.336-2.787-30.484-2.787c-10.799,0-18.986,2.961-18.986,13.239
				c0,8.187,4.18,10.452,22.645,13.587c21.775,3.658,29.961,8.013,29.961,24.91c0,20.381-12.891,27.175-33.793,27.175
				c-11.148,0-30.658-3.31-30.658-3.31l0.697-11.323c0,0,19.857,2.961,28.742,2.961c14.283,0,21.947-3.135,21.947-14.98
				c0-9.058-4.529-11.323-23.516-14.284c-19.684-3.135-29.09-6.793-29.09-24.213c0-19.162,15.502-25.432,31.354-25.432
				c13.064,0,31.529,3.31,31.529,3.31L706.555,225.297z"/>
			<path fill="#1A171B" d="M729.723,177.742h13.064v15.155h-13.064V177.742z M729.723,212.581h13.064v87.097h-13.064V212.581z"/>
			<path fill="#1A171B" d="M824.137,213.452l-0.523,10.625c0,0-13.936-1.567-20.555-1.567c-20.031,0-25.432,8.709-25.432,32.052
				c0,25.781,4.006,35.187,25.605,35.187c6.619,0,20.555-1.568,20.555-1.568l0.523,10.8c0,0-16.199,2.439-24.213,2.439
				c-27.697,0-35.885-12.716-35.885-46.858c0-31.529,10.277-43.723,36.232-43.723C808.459,210.839,824.137,213.452,824.137,213.452z
				"/>
			<path fill="#1A171B" d="M913.498,255.084c0,31.703-7.84,46.336-37.277,46.336c-29.266,0-37.277-14.633-37.277-46.336
				c0-29.961,9.754-44.245,37.277-44.245C903.918,210.839,913.498,225.123,913.498,255.084z M900.084,255.084
				c0-24.213-5.225-32.923-23.863-32.923c-18.465,0-23.865,8.71-23.865,32.923c0,24.735,3.311,35.013,23.865,35.013
				C896.949,290.097,900.084,279.819,900.084,255.084z"/>
		</g>
	</g>
</g>
<g>
	<path fill="#E1001A" d="M136.636,190.187c3.165,2.111,5.194,4.64,6.553,6.795c2.688,4.396,3.566,7.906,4.352,11.139
		c1.39,6.43,1.675,11.921,1.868,17.353c0.275,10.773-0.265,20.905-0.774,30.958c-0.527,10.019-1.146,19.898-1.359,29.542
		c-0.104,4.796-0.104,9.549,0.146,14.058c0.219,4.041,0.749,8.167,1.542,10.818c0.549-0.339,1.145-0.755,1.757-1.26
		c1.393-1.129,2.856-2.589,4.291-4.188c5.789-6.525,11.091-14.815,16.255-23.104c5.174-8.367,10.219-17.013,15.628-25.624
		c5.51-8.593,10.972-17.291,18.932-25.39c2.054-2.007,4.285-3.979,7.098-5.717c2.764-1.702,6.317-3.318,10.634-3.397l0.397-0.008
		l0.504,0.008l0.539,0.043c0.737,0.052,1.38,0.157,1.93,0.27c1.182,0.243,2.409,0.66,3.554,1.277c2.324,1.2,4.117,3.12,5.226,4.927
		c2.194,3.684,2.661,6.907,3.038,9.853c0.583,5.883,0.11,11.104-0.426,16.282c-0.578,5.144-1.369,10.158-2.201,15.137
		c-1.657,9.914-3.567,19.672-4.724,29.333c-0.55,4.806-0.948,9.646-0.617,14.111c0.179,2.198,0.584,4.354,1.308,5.813
		c0.796,1.477,1.386,1.973,2.911,2.171c1.634,0.148,3.113-0.321,4.583-1.502c1.468-1.173,2.804-2.954,3.953-4.927
		c2.312-3.98,4.072-8.61,5.761-13.225c3.361-9.324,6.408-18.968,10.798-28.134c4.342-9.071,10.248-18.021,19.038-23.487
		c2.361-1.467,4.892-2.614,7.511-3.484c-11.925-42.07-50.59-72.917-96.487-72.917c-20.037,0-38.683,5.9-54.341,16.014
		C136.077,189.892,136.379,190.021,136.636,190.187z"/>
	<path fill="#E1001A" d="M146.911,311.753c0.045,0.008,0.156-0.027,0.251-0.052c-0.062,0-0.137-0.009-0.174-0.009l-0.11,0.009
		c0.245,0-0.398,0.008-0.272,0.008h0.111h0.376C146.593,311.745,146.919,311.745,146.911,311.753z"/>
	<path fill="#E1001A" d="M280.076,251.565c-8.024,5.665-13.12,14.441-16.822,23.442c-3.729,9.106-6.159,18.708-9.017,28.352
		c-1.465,4.822-2.956,9.688-5.371,14.51c-1.238,2.39-2.729,4.814-5.033,6.943c-2.253,2.137-5.746,3.649-9.12,3.519
		c-1.718-0.025-3.692-0.478-5.362-1.529c-1.678-1.034-2.91-2.511-3.754-3.954c-1.686-2.938-2.256-5.787-2.697-8.515
		c-0.761-5.474-0.631-10.653-0.391-15.778c0.551-10.228,1.833-20.194,2.814-30.056c0.486-4.918,0.93-9.81,1.147-14.615
		c0.203-4.761,0.222-9.575-0.473-13.607c-0.326-1.955-0.983-3.736-1.49-4.292c-0.243-0.278-0.282-0.183-0.191-0.095
		c0.039,0.034,0.07,0.069,0.024,0.077c-0.067,0-0.035,0.018,0.072,0.026h-0.391h-0.118c-0.095-0.008,0.359,0.01,0.155,0.01
		l-0.072,0.008c-1.429,0-4.831,2.285-7.594,5.474c-5.744,6.482-10.683,15.032-15.42,23.512c-4.743,8.567-9.282,17.43-14.124,26.336
		c-4.92,8.897-9.812,17.864-16.778,26.736c-1.78,2.215-3.721,4.439-6.071,6.603c-2.379,2.147-5.125,4.354-9.052,6.039
		c-0.986,0.409-2.037,0.783-3.178,1.068c-1.224,0.297-2.133,0.505-3.882,0.635l-0.557,0.026l-0.629,0.018l-0.566-0.01
		c-0.756-0.016-1.558-0.104-2.351-0.233c-1.599-0.261-3.243-0.8-4.702-1.547c-2.975-1.485-5.088-3.632-6.509-5.543
		c-1.458-1.954-2.361-3.771-3.109-5.474c-2.738-6.734-3.366-12.217-4.068-17.708c-0.591-5.438-0.854-10.669-1.025-15.848
		c-0.322-10.314-0.21-20.392-0.217-30.315c-0.016-9.896-0.052-19.724-0.789-28.908c-0.374-4.518-0.966-9.019-1.918-12.313
		c-0.006-0.025-0.021-0.043-0.024-0.078l-9.868-0.452c0,0-1.432-0.46-2.027,0.349c-12.356,16.665-19.687,37.301-19.687,59.648
		c0,55.401,44.915,100.313,100.311,100.313c55.4,0,100.306-44.912,100.306-100.313c0-9.062-1.216-17.83-3.474-26.18
		C284.542,248.818,282.216,250.053,280.076,251.565z"/>
</g>
</svg>
