<?xml version="1.0" encoding="utf-8"?>
<!-- Generator: Adobe Illustrator 16.0.0, SVG Export Plug-In . SVG Version: 6.00 Build 0)  -->
<!DOCTYPE svg PUBLIC "-//W3C//DTD SVG 1.1//EN" "http://www.w3.org/Graphics/SVG/1.1/DTD/svg11.dtd">
<svg version="1.1" id="Calque_1" xmlns="http://www.w3.org/2000/svg" xmlns:xlink="http://www.w3.org/1999/xlink" x="0px" y="0px"
	 width="200px" height="200px" viewBox="0 0 200 200" enable-background="new 0 0 200 200" xml:space="preserve">
<rect fill="#00ACED" width="200" height="200"/>
<g>
	<polygon fill="#00A3E1" points="140.995,119.445 60.47,199.971 0,200 0.314,143.814 71.589,72.54 97.215,72.446 122.865,72.567 	
		"/>
	<g>
		<path fill="#212D39" d="M105.995,82.196c-6.629,0-12,5.375-12,12c0,6.629,5.371,12,12,12c6.625,0,12-5.37,12-12
			C117.995,87.571,112.62,82.196,105.995,82.196L105.995,82.196z M137.995,70.196h-9.603c-1.319,0-2.742-1.023-3.156-2.277
			l-2.483-7.446c-0.418-1.254-1.836-2.277-3.155-2.277H92.394c-1.32,0-2.742,1.023-3.156,2.277l-2.484,7.446
			c-0.418,1.254-1.836,2.277-3.155,2.277h-9.603c-4.397,0-8,3.602-8,8v36c0,4.398,3.603,8,8,8h64c4.398,0,8-3.602,8-8v-36
			C145.995,73.798,142.395,70.196,137.995,70.196L137.995,70.196z M105.995,114.195c-11.047,0-20-8.952-20-20
			c0-11.043,8.953-20,20-20c11.043,0,20,8.957,20,20C125.995,105.243,117.038,114.195,105.995,114.195L105.995,114.195z"/>
	</g>
</g>
<path fill="#FFFFFF" d="M147.995,44.822c-5.989,0-10.845,4.855-10.845,10.845s4.854,10.845,10.845,10.845
	c5.989,0,10.846-4.855,10.846-10.845S153.984,44.822,147.995,44.822z M154.509,57.563h-4.604v4.629h-3.815v-4.629h-4.604v-3.817
	h4.604v-4.605h3.815v4.605h4.604V57.563z"/>
</svg>
