<?xml version="1.0" encoding="utf-8"?>
<!-- Generator: Adobe Illustrator 16.0.0, SVG Export Plug-In . SVG Version: 6.00 Build 0)  -->
<!DOCTYPE svg PUBLIC "-//W3C//DTD SVG 1.1//EN" "http://www.w3.org/Graphics/SVG/1.1/DTD/svg11.dtd">
<svg version="1.1" id="Calque_1" xmlns="http://www.w3.org/2000/svg" xmlns:xlink="http://www.w3.org/1999/xlink" x="0px" y="0px"
	 width="8px" height="8px" viewBox="0 0 8 8" enable-background="new 0 0 8 8" xml:space="preserve">
<path fill="#FFFFFF" d="M0,0v8h8V0H0z M7.5,7.5H0.5V0.5h7.1V7.5z"/>
<g>
	<g>
		<path fill="#FFFFFF" d="M6,2.8C6,2.9,5.9,3,5.8,3H2.2C2.1,3,2,2.9,2,2.8V2.5c0-0.1,0.1-0.2,0.2-0.2h3.7C5.9,2.3,6,2.4,6,2.5V2.8z
			 M6,4.2c0,0.1-0.1,0.2-0.2,0.2H2.2C2.1,4.3,2,4.3,2,4.2V3.8c0-0.1,0.1-0.2,0.2-0.2h3.7C5.9,3.7,6,3.7,6,3.8V4.2z M6,5.5
			c0,0.1-0.1,0.2-0.2,0.2H2.2C2.1,5.7,2,5.6,2,5.5V5.2C2,5.1,2.1,5,2.2,5h3.7C5.9,5,6,5.1,6,5.2V5.5z"/>
	</g>
</g>
</svg>
