<?xml version="1.0" encoding="utf-8"?>
<!-- Generator: Adobe Illustrator 16.0.0, SVG Export Plug-In . SVG Version: 6.00 Build 0)  -->
<!DOCTYPE svg PUBLIC "-//W3C//DTD SVG 1.1//EN" "http://www.w3.org/Graphics/SVG/1.1/DTD/svg11.dtd">
<svg version="1.1" id="Calque_1" xmlns="http://www.w3.org/2000/svg" xmlns:xlink="http://www.w3.org/1999/xlink" x="0px" y="0px"
	 width="8px" height="8px" viewBox="0 0 8 8" enable-background="new 0 0 8 8" xml:space="preserve">
<g>
	<path fill="#FFFFFF" d="M3.5,0.2L0.2,3.5c-0.3,0.3-0.3,0.7,0,1c0.3,0.3,0.7,0.3,1,0L4,1.6l2.9,2.9c0.3,0.3,0.7,0.3,1,0
		c0.3-0.3,0.3-0.7,0-1L4.5,0.2C4.2-0.1,3.8-0.1,3.5,0.2L3.5,0.2z M3.3,4.2L0.5,6.8c-0.3,0.3-0.3,0.7,0,1c0.3,0.3,0.7,0.3,1,0
		l2.3-2.2l2.3,2.2c0.3,0.3,0.7,0.3,1,0c0.3-0.3,0.3-0.7,0-1L4.3,4.2C4.1,3.9,3.6,3.9,3.3,4.2L3.3,4.2z"/>
</g>
</svg>
