<?xml version="1.0" encoding="utf-8"?>
<!-- Generator: Adobe Illustrator 16.0.0, SVG Export Plug-In . SVG Version: 6.00 Build 0)  -->
<!DOCTYPE svg PUBLIC "-//W3C//DTD SVG 1.1//EN" "http://www.w3.org/Graphics/SVG/1.1/DTD/svg11.dtd">
<svg version="1.1" id="Calque_1" xmlns="http://www.w3.org/2000/svg" xmlns:xlink="http://www.w3.org/1999/xlink" x="0px" y="0px"
	 width="8px" height="8px" viewBox="0 0 8 8" enable-background="new 0 0 8 8" xml:space="preserve">
<g>
	<path fill="#FFFFFF" d="M0.4,7.4V0.6h2.4l1.2,5l1.2-5h2.4v6.8H6.2V2.1l-0.3,0l-1.3,5H3.2L2,2.1H1.8v5.3H0.4z"/>
</g>
<g>
	<path fill="#D3012C" d="M1.4,6L0.1,4.1H1c0.1,0,0.1,0,0.2,0c0,0,0.1,0.1,0.1,0.1L2,5.5c0,0,0-0.1,0-0.1c0,0,0-0.1,0.1-0.1l0.7-1
		C2.9,4.1,3,4.1,3,4.1h0.9L2.6,5.9L4,8H3.1C3,8,2.9,8,2.9,7.9c0,0-0.1-0.1-0.1-0.1L2,6.5c0,0.1-0.1,0.2-0.1,0.2L1.1,7.8
		c0,0-0.1,0.1-0.1,0.1C1,8,0.9,8,0.9,8H0L1.4,6z"/>
</g>
</svg>
