<?xml version="1.0" encoding="utf-8"?>
<!-- Generator: Adobe Illustrator 16.0.0, SVG Export Plug-In . SVG Version: 6.00 Build 0)  -->
<!DOCTYPE svg PUBLIC "-//W3C//DTD SVG 1.1//EN" "http://www.w3.org/Graphics/SVG/1.1/DTD/svg11.dtd">
<svg version="1.1" id="Calque_1" xmlns="http://www.w3.org/2000/svg" xmlns:xlink="http://www.w3.org/1999/xlink" x="0px" y="0px"
	 width="8px" height="8px" viewBox="0 0 8 8" enable-background="new 0 0 8 8" xml:space="preserve">
<g>
	<g>
		<path fill="#FFFFFF" d="M4,8C2,8,0.5,6.4,0.5,4.5c0-1.1,0.6-2.2,1.5-2.9c0.3-0.2,0.6-0.1,0.8,0.1c0.2,0.3,0.1,0.6-0.1,0.8
			c-0.6,0.5-1,1.2-1,2c0,1.3,1.1,2.4,2.4,2.4c1.3,0,2.4-1.1,2.4-2.4c0-0.8-0.4-1.5-1-2C5.2,2.3,5.1,1.9,5.3,1.7
			c0.2-0.3,0.5-0.3,0.8-0.1C7,2.2,7.5,3.3,7.5,4.5C7.5,6.4,6,8,4,8L4,8z"/>
	</g>
	<path fill="#FFFFFF" d="M4,4.3C3.7,4.3,3.4,4,3.4,3.7V0.6C3.4,0.3,3.7,0,4,0c0.3,0,0.6,0.3,0.6,0.6v3.2C4.6,4,4.3,4.3,4,4.3L4,4.3z
		"/>
</g>
</svg>
