<?xml version="1.0" encoding="utf-8"?>
<!-- Generator: Adobe Illustrator 16.0.0, SVG Export Plug-In . SVG Version: 6.00 Build 0)  -->
<!DOCTYPE svg PUBLIC "-//W3C//DTD SVG 1.1//EN" "http://www.w3.org/Graphics/SVG/1.1/DTD/svg11.dtd">
<svg version="1.1" id="Calque_1" xmlns="http://www.w3.org/2000/svg" xmlns:xlink="http://www.w3.org/1999/xlink" x="0px" y="0px"
	 width="8px" height="8px" viewBox="0 0 8 8" enable-background="new 0 0 8 8" xml:space="preserve">
<g>
	<path fill="#FFFFFF" d="M3.5,6.2"/>
	<path fill="#FFFFFF" d="M5.5,4.7C5.2,4.6,4.9,4.6,4.6,4.7C4.5,4.4,4.3,4.2,4,4.1C3.4,3.8,2.7,4,2.4,4.6l0,0c0,0,0,0,0,0.1
		c0,0,0,0,0.1,0c0.3-0.3,0.8-0.3,1.3-0.1C4,4.8,4.2,5,4.3,5.3c0.3-0.1,0.6-0.1,0.9,0.1C5.7,5.6,6,5.9,6,6.4c0,0,0,0,0,0s0,0,0,0
		c0,0,0,0,0,0C6.4,5.8,6.1,5,5.5,4.7L5.5,4.7z"/>
	<path fill="#FFFFFF" d="M1.8,2.5C1.8,2.6,1.9,2.5,1.8,2.5C2,2.3,2.3,2.3,2.6,2.3c0.2,0,0.3,0.1,0.4,0.3c0.1-0.1,0.3-0.1,0.5-0.1
		C3.8,2.6,4.1,2.7,4.1,3c0,0,0,0,0,0c0,0,0,0,0,0C4.3,2.6,4,2.2,3.6,2.1c-0.2,0-0.4,0-0.5,0.1C3,2.1,2.8,2,2.7,1.9
		C2.3,1.9,1.9,2.1,1.8,2.5C1.8,2.5,1.8,2.5,1.8,2.5L1.8,2.5z"/>
	<path fill="#FFFFFF" d="M5.3,2.5c0.1,0.1,0.2,0.2,0.2,0.3c0.1,0,0.3,0,0.4,0.1C6,3.2,6.1,3.4,6,3.5c0,0,0,0,0,0c0,0,0,0,0,0
		c0,0,0,0,0,0C6.3,3.3,6.2,3,6,2.8C5.9,2.7,5.8,2.6,5.6,2.6c0-0.1-0.1-0.3-0.2-0.4c-0.2-0.2-0.6-0.2-0.8,0c0,0,0,0,0,0c0,0,0,0,0,0
		C4.9,2.3,5.1,2.3,5.3,2.5L5.3,2.5z"/>
</g>
<path fill="#FFFFFF" d="M8,8H0V0h8V8z M6.9,1.1H1.1v5.8h5.8V1.1z"/>
</svg>
