<?xml version="1.0" encoding="utf-8"?>
<!-- Generator: Adobe Illustrator 16.0.0, SVG Export Plug-In . SVG Version: 6.00 Build 0)  -->
<!DOCTYPE svg PUBLIC "-//W3C//DTD SVG 1.1//EN" "http://www.w3.org/Graphics/SVG/1.1/DTD/svg11.dtd">
<svg version="1.1" id="Calque_1" xmlns="http://www.w3.org/2000/svg" xmlns:xlink="http://www.w3.org/1999/xlink" x="0px" y="0px"
	 width="8px" height="8px" viewBox="0 0 8 8" enable-background="new 0 0 8 8" xml:space="preserve">
<g>
	<path fill="#FFFFFF" d="M7,0.4l-1.9,0C5.1,0.2,4.9,0,4.8,0H3.2C3.1,0,2.9,0.2,2.9,0.4L1,0.4c-0.2,0-0.3,0.1-0.3,0.3v0.5
		c0,0.2,0.1,0.3,0.3,0.3h6c0.2,0,0.3-0.1,0.3-0.3V0.7C7.3,0.5,7.2,0.4,7,0.4L7,0.4z M7,0.4"/>
	<path fill="#FFFFFF" d="M6.7,2.3C6.7,2.1,6.6,2,6.4,2H1.6C1.4,2,1.3,2.1,1.3,2.3v5.5C1.3,7.9,1.4,8,1.6,8h4.9
		c0.2,0,0.3-0.1,0.3-0.3V2.3z M3.3,6.5c0,0.2-0.1,0.3-0.3,0.3c-0.2,0-0.3-0.1-0.3-0.3v-3c0-0.2,0.1-0.3,0.3-0.3
		c0.2,0,0.3,0.1,0.3,0.3V6.5z M5.3,6.5c0,0.2-0.1,0.3-0.3,0.3c-0.2,0-0.3-0.1-0.3-0.3v-3c0-0.2,0.1-0.3,0.3-0.3
		c0.2,0,0.3,0.1,0.3,0.3V6.5z M5.3,6.3"/>
</g>
</svg>
