<?xml version="1.0" encoding="utf-8"?>
<!-- Generator: Adobe Illustrator 16.0.0, SVG Export Plug-In . SVG Version: 6.00 Build 0)  -->
<!DOCTYPE svg PUBLIC "-//W3C//DTD SVG 1.1//EN" "http://www.w3.org/Graphics/SVG/1.1/DTD/svg11.dtd">
<svg version="1.1" id="Calque_1" xmlns="http://www.w3.org/2000/svg" xmlns:xlink="http://www.w3.org/1999/xlink" x="0px" y="0px"
	 width="8px" height="8px" viewBox="0 0 8 8" enable-background="new 0 0 8 8" xml:space="preserve">
<g>
	<g>
		<path fill="#FFFFFF" d="M4,8C1.8,8,0,6.2,0,4c0-2.2,1.8-4,4-4c2.2,0,4,1.8,4,4C8,6.2,6.2,8,4,8z M5.3,5.7c0-0.1-0.1-0.2-0.2-0.2
			H4.7V2.8c0-0.1-0.1-0.2-0.2-0.2H2.8c-0.1,0-0.2,0.1-0.2,0.2v0.8c0,0.1,0.1,0.2,0.2,0.2h0.5v1.7H2.8c-0.1,0-0.2,0.1-0.2,0.2v0.8
			c0,0.1,0.1,0.2,0.2,0.2h2.3c0.1,0,0.2-0.1,0.2-0.2V5.7z M4.7,1c0-0.1-0.1-0.2-0.2-0.2h-1C3.4,0.8,3.3,0.9,3.3,1v0.8
			C3.3,1.9,3.4,2,3.5,2h1c0.1,0,0.2-0.1,0.2-0.2V1z"/>
	</g>
</g>
</svg>
