<?xml version="1.0" encoding="utf-8"?>
<!-- Generator: Adobe Illustrator 16.0.0, SVG Export Plug-In . SVG Version: 6.00 Build 0)  -->
<!DOCTYPE svg PUBLIC "-//W3C//DTD SVG 1.1//EN" "http://www.w3.org/Graphics/SVG/1.1/DTD/svg11.dtd">
<svg version="1.1" id="Calque_1" xmlns="http://www.w3.org/2000/svg" xmlns:xlink="http://www.w3.org/1999/xlink" x="0px" y="0px"
	 width="8px" height="8px" viewBox="0 0 8 8" enable-background="new 0 0 8 8" xml:space="preserve">
<g>
	<path fill="#FFFFFF" d="M4.5,7.8l3.3-3.3c0.3-0.3,0.3-0.7,0-1c-0.3-0.3-0.7-0.3-1,0L4,6.4L1.1,3.5c-0.3-0.3-0.7-0.3-1,0
		c-0.3,0.3-0.3,0.7,0,1l3.3,3.3C3.8,8.1,4.2,8.1,4.5,7.8L4.5,7.8z M4.7,3.8l2.8-2.6c0.3-0.3,0.3-0.7,0-1c-0.3-0.3-0.7-0.3-1,0
		L4.2,2.4L1.9,0.2c-0.3-0.3-0.7-0.3-1,0c-0.3,0.3-0.3,0.7,0,1l2.8,2.6C3.9,4.1,4.4,4.1,4.7,3.8L4.7,3.8z"/>
</g>
</svg>
