<?xml version="1.0" encoding="utf-8"?>
<!-- Generator: Adobe Illustrator 16.0.0, SVG Export Plug-In . SVG Version: 6.00 Build 0)  -->
<!DOCTYPE svg PUBLIC "-//W3C//DTD SVG 1.1//EN" "http://www.w3.org/Graphics/SVG/1.1/DTD/svg11.dtd">
<svg version="1.1" id="Calque_1" xmlns="http://www.w3.org/2000/svg" xmlns:xlink="http://www.w3.org/1999/xlink" x="0px" y="0px"
	 width="8px" height="8px" viewBox="0 0 8 8" enable-background="new 0 0 8 8" xml:space="preserve">
<g>
	<path fill="#FFFFFF" d="M2.1,1.8H1.5V0.5C1.5,0.2,1.4,0,1.1,0S0.7,0.2,0.7,0.5v1.3H0.2C0.1,1.8,0,1.9,0,2.1v1.1
		c0,0.1,0.1,0.3,0.2,0.3h0.5v4.2C0.7,7.8,0.9,8,1.1,8s0.4-0.2,0.4-0.5V3.4h0.5c0.1,0,0.2-0.1,0.2-0.3V2.1C2.3,1.9,2.2,1.8,2.1,1.8
		L2.1,1.8z"/>
	<path fill="#FFFFFF" d="M7.8,2H7.3V0.5C7.3,0.2,7.1,0,6.9,0C6.6,0,6.5,0.2,6.5,0.5V2H5.9C5.8,2,5.7,2.1,5.7,2.3v1.1
		c0,0.1,0.1,0.3,0.2,0.3h0.5v3.9C6.5,7.8,6.6,8,6.9,8c0.2,0,0.4-0.2,0.4-0.5V3.6h0.5C7.9,3.6,8,3.5,8,3.3V2.3C8,2.1,7.9,2,7.8,2
		L7.8,2z"/>
	<path fill="#FFFFFF" d="M4.9,4.5H4.4v-4C4.4,0.2,4.2,0,4,0S3.6,0.2,3.6,0.5v4H3.1C3,4.5,2.9,4.6,2.9,4.7v1.1C2.9,6,3,6.1,3.1,6.1
		h0.5v1.5C3.6,7.8,3.8,8,4,8s0.4-0.2,0.4-0.5V6.1h0.5C5,6.1,5.1,6,5.1,5.8V4.7C5.1,4.6,5,4.5,4.9,4.5L4.9,4.5z"/>
</g>
</svg>
