<?xml version="1.0" encoding="utf-8"?>
<!-- Generator: Adobe Illustrator 16.0.0, SVG Export Plug-In . SVG Version: 6.00 Build 0)  -->
<!DOCTYPE svg PUBLIC "-//W3C//DTD SVG 1.1//EN" "http://www.w3.org/Graphics/SVG/1.1/DTD/svg11.dtd">
<svg version="1.1" id="Calque_1" xmlns="http://www.w3.org/2000/svg" xmlns:xlink="http://www.w3.org/1999/xlink" x="0px" y="0px"
	 width="8px" height="8px" viewBox="0 0 8 8" enable-background="new 0 0 8 8" xml:space="preserve">
<g>
	<path fill="#FFFFFF" d="M0,3.8v0.3c1.8,3.1,6.2,3.1,8,0V3.8C6.2,0.8,1.8,0.8,0,3.8z M4,5.8C3,5.8,2.2,5,2.2,4C2.2,3,3,2.2,4,2.2
		C5,2.2,5.8,3,5.8,4C5.8,5,5,5.8,4,5.8z"/>
	<path fill="#FFFFFF" d="M4.9,4c0,0.5-0.4,0.9-0.9,0.9S3.1,4.5,3.1,4c0-0.5,0.4-0.9,0.9-0.9S4.9,3.5,4.9,4z"/>
</g>
</svg>
