<?xml version="1.0" encoding="utf-8"?>
<!-- Generator: Adobe Illustrator 16.0.0, SVG Export Plug-In . SVG Version: 6.00 Build 0)  -->
<!DOCTYPE svg PUBLIC "-//W3C//DTD SVG 1.1//EN" "http://www.w3.org/Graphics/SVG/1.1/DTD/svg11.dtd">
<svg version="1.1" id="Calque_1" xmlns="http://www.w3.org/2000/svg" xmlns:xlink="http://www.w3.org/1999/xlink" x="0px" y="0px"
	 width="8px" height="8px" viewBox="0 0 8 8" enable-background="new 0 0 8 8" xml:space="preserve">
<rect x="1.1" fill="#FFFFFF" width="0.5" height="0.5"/>
<rect x="0" fill="#FFFFFF" width="0.5" height="0.5"/>
<rect x="2.1" fill="#FFFFFF" width="0.5" height="0.5"/>
<rect x="3.2" fill="#FFFFFF" width="0.5" height="0.5"/>
<rect x="4.3" fill="#FFFFFF" width="0.5" height="0.5"/>
<rect x="5.3" fill="#FFFFFF" width="0.5" height="0.5"/>
<rect x="6.4" fill="#FFFFFF" width="0.5" height="0.5"/>
<rect x="7.5" fill="#FFFFFF" width="0.5" height="0.5"/>
<rect x="1.1" y="7.5" fill="#FFFFFF" width="0.5" height="0.5"/>
<rect x="0" y="7.5" fill="#FFFFFF" width="0.5" height="0.5"/>
<rect x="2.1" y="7.5" fill="#FFFFFF" width="0.5" height="0.5"/>
<rect x="3.2" y="7.5" fill="#FFFFFF" width="0.5" height="0.5"/>
<rect x="4.3" y="7.5" fill="#FFFFFF" width="0.5" height="0.5"/>
<rect x="5.3" y="7.5" fill="#FFFFFF" width="0.5" height="0.5"/>
<rect x="6.4" y="7.5" fill="#FFFFFF" width="0.5" height="0.5"/>
<rect x="7.5" y="7.5" fill="#FFFFFF" width="0.5" height="0.5"/>
<rect x="7.5" y="1.1" fill="#FFFFFF" width="0.5" height="0.5"/>
<rect x="7.5" y="2.1" fill="#FFFFFF" width="0.5" height="0.5"/>
<rect x="7.5" y="3.2" fill="#FFFFFF" width="0.5" height="0.5"/>
<rect x="7.5" y="4.2" fill="#FFFFFF" width="0.5" height="0.5"/>
<rect x="7.5" y="5.3" fill="#FFFFFF" width="0.5" height="0.5"/>
<rect x="7.5" y="6.4" fill="#FFFFFF" width="0.5" height="0.5"/>
<rect y="1.1" fill="#FFFFFF" width="0.5" height="0.5"/>
<rect y="2.1" fill="#FFFFFF" width="0.5" height="0.5"/>
<rect y="3.2" fill="#FFFFFF" width="0.5" height="0.5"/>
<rect y="4.2" fill="#FFFFFF" width="0.5" height="0.5"/>
<rect y="5.3" fill="#FFFFFF" width="0.5" height="0.5"/>
<rect y="6.4" fill="#FFFFFF" width="0.5" height="0.5"/>
<g>
	<path fill="#FFFFFF" d="M1.6,6.2V1.7h1.6L3.9,5l0.8-3.3h1.6v4.5H5.4V2.8l-0.2,0L4.3,6H3.4L2.6,2.8H2.5v3.5H1.6z"/>
</g>
</svg>
