<?xml version="1.0" encoding="utf-8"?>
<!-- Generator: Adobe Illustrator 16.0.0, SVG Export Plug-In . SVG Version: 6.00 Build 0)  -->
<!DOCTYPE svg PUBLIC "-//W3C//DTD SVG 1.1//EN" "http://www.w3.org/Graphics/SVG/1.1/DTD/svg11.dtd">
<svg version="1.1" id="Calque_1" xmlns="http://www.w3.org/2000/svg" xmlns:xlink="http://www.w3.org/1999/xlink" x="0px" y="0px"
	 width="8px" height="8px" viewBox="0 0 8 8" enable-background="new 0 0 8 8" xml:space="preserve">
<g>
	<path fill="#FFFFFF" d="M6.9,7.8l0.9-0.9L3.1,2.2l0-1.7L1.3,0L1.1,0.2l0.9,0.9L1.1,2L0.2,1.1L0,1.3l0.5,1.8l1.7,0l0,0L6.9,7.8z
		 M6.9,7.8L6.9,7.8c0.3,0.2,0.6,0.2,0.9,0C8,7.6,8,7.2,7.8,6.9l0,0l0,0"/>
</g>
<g>
	<path fill="#DD0121" d="M2,5.8V0.1h2l1,4.2l1-4.2h2v5.8H6.8V1.4l-0.2,0L5.5,5.6H4.4L3.3,1.4H3.2v4.5H2z"/>
</g>
</svg>
