<?xml version="1.0" encoding="utf-8"?>
<!-- Generator: Adobe Illustrator 16.0.0, SVG Export Plug-In . SVG Version: 6.00 Build 0)  -->
<!DOCTYPE svg PUBLIC "-//W3C//DTD SVG 1.1//EN" "http://www.w3.org/Graphics/SVG/1.1/DTD/svg11.dtd">
<svg version="1.1" id="Calque_1" xmlns="http://www.w3.org/2000/svg" xmlns:xlink="http://www.w3.org/1999/xlink" x="0px" y="0px"
	 width="8px" height="8px" viewBox="0 0 8 8" enable-background="new 0 0 8 8" xml:space="preserve">
<g>
	<path fill="#FFFFFF" d="M6.9,7.8L7.8,7L3.1,2.6l0-1.6L1.3,0.5L1.1,0.7l0.9,0.9L1.1,2.4L0.2,1.5L0,1.7l0.5,1.7l1.7,0l0,0L6.9,7.8z
		 M6.9,7.8L6.9,7.8c0.3,0.2,0.7,0.2,0.9,0c0.2-0.2,0.2-0.6,0-0.8l0,0l0,0"/>
</g>
<g>
	<path fill="#2CC501" d="M3.4,1.7c0-0.6,0.2-1,0.5-1.3C4.3,0.1,4.8,0,5.4,0C5.7,0,6,0,6.3,0.1c0.3,0,0.6,0.1,0.8,0.1l0.3,0.1
		L7.3,1.1C6.5,1,5.9,1,5.6,1C5.2,1,5,1.1,4.8,1.2C4.7,1.3,4.6,1.4,4.6,1.6c0,0.2,0.1,0.3,0.2,0.4c0.2,0.1,0.5,0.2,1,0.4
		c0.5,0.1,0.8,0.3,1,0.4c0.2,0.1,0.4,0.3,0.5,0.5c0.1,0.2,0.2,0.5,0.2,0.8c0,0.4-0.1,0.7-0.3,1C7.1,5.3,6.8,5.5,6.5,5.7
		C6.2,5.8,5.9,5.9,5.5,5.9c-0.2,0-0.5,0-0.9-0.1S4,5.7,3.8,5.7L3.4,5.6l0.1-0.9C4.4,4.8,5,4.9,5.4,4.9c0.3,0,0.6-0.1,0.7-0.2
		c0.2-0.1,0.2-0.3,0.2-0.5c0-0.2-0.1-0.3-0.2-0.4C6,3.6,5.7,3.5,5.2,3.4C4.6,3.2,4.1,3,3.8,2.7C3.5,2.5,3.4,2.1,3.4,1.7z"/>
</g>
</svg>
