<?xml version="1.0" encoding="utf-8"?>
<!-- Generator: Adobe Illustrator 16.0.0, SVG Export Plug-In . SVG Version: 6.00 Build 0)  -->
<!DOCTYPE svg PUBLIC "-//W3C//DTD SVG 1.1//EN" "http://www.w3.org/Graphics/SVG/1.1/DTD/svg11.dtd">
<svg version="1.1" id="Calque_1" xmlns="http://www.w3.org/2000/svg" xmlns:xlink="http://www.w3.org/1999/xlink" x="0px" y="0px"
	 width="8px" height="8px" viewBox="0 0 8 8" enable-background="new 0 0 8 8" xml:space="preserve">
<g>
	<path fill="#FFFFFF" d="M5.3,4.4c0,0.1,0,0.1-0.1,0.1L4.6,4.7c0,0.1-0.1,0.2-0.1,0.3c0.1,0.2,0.2,0.4,0.4,0.5c0,0,0,0.1,0,0.1
		c0,0,0,0.1,0,0.1C4.8,5.8,4.3,6.4,4.2,6.4c0,0-0.1,0-0.1,0L3.6,6C3.5,6,3.4,6.1,3.3,6.1c0,0.2,0,0.5-0.1,0.7c0,0.1-0.1,0.1-0.1,0.1
		H2.3c-0.1,0-0.1-0.1-0.1-0.1L2.1,6.1C1.9,6.1,1.8,6,1.7,6L1.3,6.4c0,0-0.1,0-0.1,0c0,0-0.1,0-0.1,0C1,6.2,0.5,5.8,0.5,5.6
		c0,0,0-0.1,0-0.1C0.6,5.4,0.8,5.2,0.9,5C0.8,4.9,0.8,4.8,0.7,4.7L0.1,4.5C0,4.5,0,4.5,0,4.4V3.6c0-0.1,0-0.1,0.1-0.1l0.6-0.1
		c0-0.1,0.1-0.2,0.1-0.3C0.8,2.8,0.6,2.6,0.5,2.5c0,0,0-0.1,0-0.1c0,0,0-0.1,0-0.1C0.6,2.2,1,1.6,1.2,1.6c0,0,0.1,0,0.1,0L1.7,2
		C1.8,2,1.9,1.9,2.1,1.9c0-0.2,0-0.5,0.1-0.7c0-0.1,0.1-0.1,0.1-0.1h0.8c0.1,0,0.1,0.1,0.1,0.1l0.1,0.7C3.4,1.9,3.5,2,3.6,2l0.5-0.4
		c0,0,0.1,0,0.1,0c0,0,0.1,0,0.1,0c0.1,0.1,0.6,0.6,0.6,0.7c0,0,0,0.1,0,0.1C4.7,2.6,4.6,2.8,4.5,3c0.1,0.1,0.1,0.2,0.1,0.4l0.6,0.1
		c0.1,0,0.1,0.1,0.1,0.1V4.4L5.3,4.4z M2.7,2.8C2.1,2.8,1.6,3.4,1.6,4c0,0.6,0.5,1.2,1.1,1.2S3.7,4.6,3.7,4C3.7,3.4,3.3,2.8,2.7,2.8
		z M8,2c0,0.1-0.5,0.1-0.6,0.1c0,0.1-0.1,0.2-0.1,0.2c0,0.1,0.2,0.5,0.2,0.6c0,0,0,0,0,0C7.4,3.1,7,3.3,6.9,3.3
		c-0.1,0-0.4-0.5-0.4-0.5c0,0-0.1,0-0.1,0s-0.1,0-0.1,0c0,0.1-0.4,0.5-0.4,0.5c0,0-0.5-0.3-0.5-0.3c0,0,0,0,0,0
		c0-0.1,0.2-0.5,0.2-0.6c0-0.1-0.1-0.2-0.1-0.2C5.3,2.1,4.8,2.1,4.8,2V1.4c0-0.1,0.5-0.1,0.6-0.1C5.5,1.1,5.5,1,5.5,1
		c0-0.1-0.2-0.5-0.2-0.6c0,0,0,0,0,0c0,0,0.5-0.3,0.5-0.3c0.1,0,0.4,0.4,0.4,0.5c0,0,0.1,0,0.1,0s0.1,0,0.1,0C6.6,0.3,6.8,0.2,6.9,0
		l0,0c0,0,0.5,0.3,0.5,0.3c0,0,0,0,0,0c0,0.1-0.2,0.5-0.2,0.6c0,0.1,0.1,0.2,0.1,0.2C7.5,1.2,8,1.3,8,1.4V2z M8,6.6
		c0,0.1-0.5,0.1-0.6,0.1c0,0.1-0.1,0.2-0.1,0.2c0,0.1,0.2,0.5,0.2,0.6c0,0,0,0,0,0C7.4,7.7,7,8,6.9,8C6.9,8,6.6,7.5,6.5,7.5
		c0,0-0.1,0-0.1,0s-0.1,0-0.1,0C6.2,7.5,5.9,8,5.9,8c0,0-0.5-0.3-0.5-0.3c0,0,0,0,0,0c0-0.1,0.2-0.5,0.2-0.6c0-0.1-0.1-0.2-0.1-0.2
		c-0.1,0-0.6-0.1-0.6-0.1V6c0-0.1,0.5-0.1,0.6-0.1c0-0.1,0.1-0.2,0.1-0.2c0-0.1-0.2-0.5-0.2-0.6c0,0,0,0,0,0c0,0,0.5-0.3,0.5-0.3
		c0.1,0,0.4,0.5,0.4,0.5c0,0,0.1,0,0.1,0s0.1,0,0.1,0C6.6,5,6.8,4.8,6.9,4.7l0,0c0,0,0.5,0.3,0.5,0.3c0,0,0,0,0,0
		c0,0.1-0.2,0.5-0.2,0.6c0,0.1,0.1,0.2,0.1,0.2C7.5,5.9,8,5.9,8,6V6.6z M6.4,1.1c-0.3,0-0.5,0.3-0.5,0.6c0,0.3,0.2,0.6,0.5,0.6
		c0.3,0,0.5-0.3,0.5-0.6C6.9,1.4,6.7,1.1,6.4,1.1z M6.4,5.7C6.1,5.7,5.9,6,5.9,6.3c0,0.3,0.2,0.6,0.5,0.6c0.3,0,0.5-0.3,0.5-0.6
		C6.9,6,6.7,5.7,6.4,5.7z"/>
</g>
</svg>
