<?xml version="1.0" encoding="utf-8"?>
<!-- Generator: Adobe Illustrator 16.0.0, SVG Export Plug-In . SVG Version: 6.00 Build 0)  -->
<!DOCTYPE svg PUBLIC "-//W3C//DTD SVG 1.1//EN" "http://www.w3.org/Graphics/SVG/1.1/DTD/svg11.dtd">
<svg version="1.1" id="Calque_1" xmlns="http://www.w3.org/2000/svg" xmlns:xlink="http://www.w3.org/1999/xlink" x="0px" y="0px"
	 width="8px" height="8px" viewBox="0 0 8 8" enable-background="new 0 0 8 8" xml:space="preserve">
<g>
	<path fill="#FFFFFF" d="M8,7.7H0.5V0H8V7.7z M7,1.1H1.5v5.6H7V1.1z"/>
	<rect x="2.6" y="2.1" fill="#FFFFFF" width="3.3" height="3.5"/>
</g>
<g>
	<path fill="#D3012C" d="M1.3,5.9L0.1,4H1C1,4,1.1,4,1.1,4c0,0,0.1,0.1,0.1,0.1L2,5.5c0,0,0-0.1,0-0.1c0,0,0-0.1,0.1-0.1l0.7-1.1
		C2.8,4,2.9,4,3,4h0.9L2.6,5.9L3.9,8H3C2.9,8,2.9,8,2.8,7.9c0,0-0.1-0.1-0.1-0.1L1.9,6.4c0,0.1-0.1,0.2-0.1,0.2L1.1,7.8
		c0,0-0.1,0.1-0.1,0.1C0.9,8,0.9,8,0.8,8H0L1.3,5.9z"/>
</g>
</svg>
