<?xml version="1.0" encoding="utf-8"?>
<!-- Generator: Adobe Illustrator 16.0.0, SVG Export Plug-In . SVG Version: 6.00 Build 0)  -->
<!DOCTYPE svg PUBLIC "-//W3C//DTD SVG 1.1//EN" "http://www.w3.org/Graphics/SVG/1.1/DTD/svg11.dtd">
<svg version="1.1" id="Calque_1" xmlns="http://www.w3.org/2000/svg" xmlns:xlink="http://www.w3.org/1999/xlink" x="0px" y="0px"
	 width="8px" height="8px" viewBox="0 0 8 8" enable-background="new 0 0 8 8" xml:space="preserve">
<g>
	<g>
		<path fill="#FFFFFF" d="M7.9,7.6C7.9,7.8,7.7,8,7.5,8H3.3C3.1,8,2.9,7.8,2.9,7.6V6.9H0.5c-0.2,0-0.4-0.2-0.4-0.4v-6
			C0.1,0.2,0.3,0,0.5,0h4.7c0.2,0,0.4,0.2,0.4,0.4v1.5C5.7,1.9,5.8,2,5.8,2l1.8,1.8C7.8,4,7.9,4.3,7.9,4.6V7.6z M4.6,0.7
			c0-0.1-0.1-0.1-0.1-0.1H1.3c-0.1,0-0.1,0.1-0.1,0.1V1c0,0.1,0.1,0.1,0.1,0.1h3.1c0.1,0,0.1-0.1,0.1-0.1V0.7z M7.4,7.4V4.6H5.5
			c-0.2,0-0.4-0.2-0.4-0.4V2.3H3.4v5.1H7.4z M7,4L5.7,2.7V4H7z"/>
	</g>
</g>
</svg>
