<?xml version="1.0" encoding="utf-8"?>
<!-- Generator: Adobe Illustrator 16.0.0, SVG Export Plug-In . SVG Version: 6.00 Build 0)  -->
<!DOCTYPE svg PUBLIC "-//W3C//DTD SVG 1.1//EN" "http://www.w3.org/Graphics/SVG/1.1/DTD/svg11.dtd">
<svg version="1.1" id="Calque_1" xmlns="http://www.w3.org/2000/svg" xmlns:xlink="http://www.w3.org/1999/xlink" x="0px" y="0px"
	 width="8px" height="8px" viewBox="0 0 8 8" enable-background="new 0 0 8 8" xml:space="preserve">
<g>
	<g>
		<path fill="#FFFFFF" d="M7.4,2.4v5.1C7.4,7.8,7.2,8,7,8H1C0.8,8,0.6,7.8,0.6,7.6V0.4C0.6,0.2,0.8,0,1,0h4c0.2,0,0.6,0.1,0.7,0.3
			l1.4,1.4C7.3,1.9,7.4,2.2,7.4,2.4z M6.9,2.9H5c-0.2,0-0.4-0.2-0.4-0.4V0.6H1.1v6.9h5.7V2.9z M1.7,3.7c0-0.5,0.4-0.9,0.9-0.9
			c0.5,0,0.9,0.4,0.9,0.9c0,0.5-0.4,0.9-0.9,0.9C2.1,4.6,1.7,4.2,1.7,3.7z M6.3,6.9H1.7V6l0.9-0.9l0.6,0.6L4.9,4l1.4,1.4V6.9z
			 M5.1,2.3h1.7c0-0.1-0.1-0.2-0.1-0.2L5.3,0.7c0,0-0.1-0.1-0.2-0.1V2.3z"/>
	</g>
</g>
</svg>
