<?xml version="1.0" encoding="utf-8"?>
<!-- Generator: Adobe Illustrator 16.0.0, SVG Export Plug-In . SVG Version: 6.00 Build 0)  -->
<!DOCTYPE svg PUBLIC "-//W3C//DTD SVG 1.1//EN" "http://www.w3.org/Graphics/SVG/1.1/DTD/svg11.dtd">
<svg version="1.1" id="Calque_1" xmlns="http://www.w3.org/2000/svg" xmlns:xlink="http://www.w3.org/1999/xlink" x="0px" y="0px"
	 width="8px" height="8px" viewBox="0 0 8 8" enable-background="new 0 0 8 8" xml:space="preserve">
<g>
	<g>
		<path fill="#FFFFFF" d="M7.4,7C4,5.9,4,5.9,4,5.9C3.9,5.9,0.7,7,0.7,7c0,0-0.1,0-0.1-0.1c0,0,0,0,0,0V2.1c0,0,0,0,0,0
			c0,0,0.1,0,0.1,0c0,0,0.3-0.1,0.7-0.2V0.1L3.8,1c0,0,2.8-1,2.8-1c0,0,0.1,0,0.1,0.1V2l0.7,0.2V7z M3.8,5.8V1.1l-3.1,1v4.6L3.8,5.8
			z M3.2,4.7c-0.1,0-0.3-0.2-0.4-0.2c-0.1,0-0.3-0.3-0.4-0.3C2.3,4.5,2.1,4.8,1.9,5C1.8,5.1,1.5,5.4,1.4,5.5c0,0-0.2,0-0.2,0
			c0.1-0.1,0.3-0.3,0.4-0.4c0.1-0.1,0.6-0.9,0.7-1c0.1-0.2,0.4-0.7,0.4-0.8c0,0-0.4,0.1-0.5,0.1c-0.1,0-0.3,0.1-0.4,0.1
			c0,0,0,0.1,0,0.1c0,0-0.1,0.1-0.1,0.1c0,0-0.1,0-0.2,0c-0.1,0-0.1-0.1-0.1-0.1c0,0,0,0,0-0.1c0.1,0,0.1,0,0.2,0
			c0.1,0,0.3-0.1,0.5-0.1c0.1,0,0.4-0.1,0.5-0.2C2.6,3.2,2.8,3,2.9,3C3,3,3.1,2.9,3.1,2.9s0,0.1,0,0.1c0,0-0.2,0.4-0.3,0.5
			c0,0-0.1,0.3-0.3,0.6c0.1,0,0.2,0.1,0.3,0.1c0.1,0,0.6,0.3,0.6,0.3c0,0,0.1,0.2,0.1,0.3C3.5,4.8,3.3,4.7,3.2,4.7z M2.6,2.8
			c0,0.1-0.2,0.1-0.2,0.2S2.2,3,2.1,3c0,0-0.1,0-0.2-0.1C1.8,2.8,1.8,2.7,1.8,2.7c0,0,0.1,0,0.2,0c0.1,0,0.2-0.1,0.3-0.1
			c0.1,0,0.2-0.1,0.2-0.1c0,0,0.1,0,0.1,0.1C2.6,2.7,2.6,2.7,2.6,2.8z M6.1,7L5.9,7.8L5.7,7.5C5.4,7.7,4.9,7.9,4.5,7.9
			C4.4,8,4.2,8,4.1,8H3.7C3.2,8,2.4,7.7,2,7.4c0,0,0,0,0-0.1c0,0,0-0.1,0.1-0.1c0,0,0.3,0.1,0.3,0.2c0.4,0.2,1,0.4,1.4,0.4
			c0.6,0,0.9-0.1,1.4-0.3c0.1-0.1,0.3-0.2,0.4-0.2L5.4,7L6.1,7z M6.6,1.9V0.2L4,1.1L6.6,1.9z M6.7,5.5L5.9,2.6L5.5,2.4l-1,2.4L5,5
			l0.2-0.5l0.9,0.3l0.2,0.6L6.7,5.5z M6,4.2L5.4,4l0.3-0.8L6,4.2z"/>
	</g>
</g>
</svg>
