<?xml version="1.0" encoding="utf-8"?>
<!-- Generator: Adobe Illustrator 16.0.0, SVG Export Plug-In . SVG Version: 6.00 Build 0)  -->
<!DOCTYPE svg PUBLIC "-//W3C//DTD SVG 1.1//EN" "http://www.w3.org/Graphics/SVG/1.1/DTD/svg11.dtd">
<svg version="1.1" id="Calque_1" xmlns="http://www.w3.org/2000/svg" xmlns:xlink="http://www.w3.org/1999/xlink" x="0px" y="0px"
	 width="8px" height="8px" viewBox="0 0 8 8" enable-background="new 0 0 8 8" xml:space="preserve">
<g>
	<path fill="#FFFFFF" d="M6.5,7.2l1.1-0.3c0.2,0,0.3-0.2,0.3-0.4L6.2,0.3C6.2,0.1,6,0,5.8,0.1L4.7,0.4c-0.2,0-0.3,0.2-0.3,0.4L6,7
		C6.1,7.2,6.3,7.3,6.5,7.2L6.5,7.2z"/>
	<path fill="#FFFFFF" d="M1.6,7.2C1.8,7.2,2,7,2,6.8V0.4C2,0.2,1.8,0,1.6,0H0.5C0.3,0.1,0.1,0.2,0.1,0.4v6.4c0,0.2,0.2,0.4,0.4,0.4
		H1.6z"/>
	<path fill="#FFFFFF" d="M3.8,7.2C4,7.2,4.2,7,4.2,6.8V0.4C4.2,0.2,4,0,3.8,0H2.7C2.5,0,2.3,0.2,2.3,0.4v6.4c0,0.2,0.2,0.4,0.4,0.4
		H3.8z"/>
</g>
<g>
	<path fill="#FFFFFF" d="M8,7.6H0V8h8V7.6z"/>
</g>
</svg>
