<?xml version="1.0" encoding="utf-8"?>
<!-- Generator: Adobe Illustrator 16.0.0, SVG Export Plug-In . SVG Version: 6.00 Build 0)  -->
<!DOCTYPE svg PUBLIC "-//W3C//DTD SVG 1.1//EN" "http://www.w3.org/Graphics/SVG/1.1/DTD/svg11.dtd">
<svg version="1.1" id="Calque_1" xmlns="http://www.w3.org/2000/svg" xmlns:xlink="http://www.w3.org/1999/xlink" x="0px" y="0px"
	 width="8px" height="8px" viewBox="0 0 8 8" enable-background="new 0 0 8 8" xml:space="preserve">
<g>
	<g>
		<path fill="#FFFFFF" stroke="#FFFFFF" stroke-width="0.25" stroke-miterlimit="10" d="M2.4,7.1c-0.1,0.1-0.1,0.1-0.2,0L0.3,5.2
			C0.3,5.1,0.3,5.1,0.3,5l1.9-1.9C2.2,3,2.2,3,2.3,3.1l0.2,0.2c0.1,0.1,0.1,0.1,0,0.2L1,5.1l1.6,1.6c0.1,0.1,0.1,0.1,0,0.2L2.4,7.1z
			 M3.5,7.8C3.4,7.9,3.4,7.9,3.3,7.9L3,7.8C3,7.8,3,7.7,3,7.6l1.5-5.2c0.1-0.1,0.1-0.1,0.2-0.1l0.3,0.1C5,2.4,5,2.5,5,2.6L3.5,7.8z
			 M5.8,7.1c-0.1,0.1-0.1,0.1-0.2,0L5.4,6.9c-0.1-0.1-0.1-0.1,0-0.2L7,5.1L5.4,3.5c-0.1-0.1-0.1-0.1,0-0.2l0.2-0.2
			C5.7,3,5.7,3,5.8,3.1L7.6,5c0.1,0.1,0.1,0.1,0.1,0.2L5.8,7.1z"/>
	</g>
</g>
</svg>
