<?xml version="1.0" encoding="utf-8"?>
<!-- Generator: Adobe Illustrator 16.0.0, SVG Export Plug-In . SVG Version: 6.00 Build 0)  -->
<!DOCTYPE svg PUBLIC "-//W3C//DTD SVG 1.1//EN" "http://www.w3.org/Graphics/SVG/1.1/DTD/svg11.dtd">
<svg version="1.1" id="Calque_1" xmlns="http://www.w3.org/2000/svg" xmlns:xlink="http://www.w3.org/1999/xlink" x="0px" y="0px"
	 width="8px" height="8px" viewBox="0 0 8 8" enable-background="new 0 0 8 8" xml:space="preserve">
<g>
	<g>
		<path fill="#FFFFFF" d="M8,7.2c0,0.3-0.2,0.5-0.5,0.5H0.5C0.2,7.7,0,7.5,0,7.2V5.7c0-0.3,0.2-0.5,0.5-0.5h2.2l0.7,0.7
			C3.5,6.1,3.8,6.2,4,6.2s0.5-0.1,0.7-0.3l0.7-0.7h2.2C7.8,5.2,8,5.4,8,5.7V7.2z M6.4,3.3L4.2,5.4C4.2,5.5,4.1,5.5,4,5.5
			s-0.2,0-0.2-0.1L1.6,3.3C1.5,3.2,1.5,3.1,1.6,3c0-0.1,0.2-0.2,0.3-0.2h1.2V0.6c0-0.2,0.1-0.3,0.3-0.3h1.2c0.2,0,0.3,0.1,0.3,0.3
			v2.2h1.2c0.1,0,0.2,0.1,0.3,0.2C6.5,3.1,6.5,3.2,6.4,3.3z M5.8,6.5c-0.2,0-0.3,0.1-0.3,0.3c0,0.2,0.1,0.3,0.3,0.3s0.3-0.1,0.3-0.3
			C6.2,6.6,6,6.5,5.8,6.5z M7.1,6.5c-0.2,0-0.3,0.1-0.3,0.3c0,0.2,0.1,0.3,0.3,0.3c0.2,0,0.3-0.1,0.3-0.3C7.4,6.6,7.2,6.5,7.1,6.5z"
			/>
	</g>
</g>
</svg>
