<?xml version="1.0" encoding="utf-8"?>
<!-- Generator: Adobe Illustrator 16.0.0, SVG Export Plug-In . SVG Version: 6.00 Build 0)  -->
<!DOCTYPE svg PUBLIC "-//W3C//DTD SVG 1.1//EN" "http://www.w3.org/Graphics/SVG/1.1/DTD/svg11.dtd">
<svg version="1.1" id="Calque_1" xmlns="http://www.w3.org/2000/svg" xmlns:xlink="http://www.w3.org/1999/xlink" x="0px" y="0px"
	 width="8px" height="8px" viewBox="0 0 8 8" enable-background="new 0 0 8 8" xml:space="preserve">
<path fill-rule="evenodd" clip-rule="evenodd" fill="#FFFFFF" d="M3.9,5.3C3.7,5.1,3.6,5,3.2,4.9C3.1,4.9,3,4.9,3,4.8
	c0-0.1,0.2-0.2,0.2-0.2c0.2-0.2,0.3-0.5,0.3-0.7c0-0.4-0.3-0.7-0.8-0.7C2.3,3.2,2,3.5,2,3.8c0,0.2,0.1,0.5,0.3,0.7
	c0,0,0.2,0.2,0.2,0.2c0,0.1-0.1,0.1-0.1,0.2C1.9,5,1.8,5.1,1.6,5.3C1.5,5.4,1.5,5.5,1.5,5.6v0.3c0,0.1,0.1,0.2,0.3,0.2h2
	C3.9,6.2,4,6.1,4,5.9V5.6C4,5.5,4,5.4,3.9,5.3z M5.9,3.5H5.1c-0.2,0-0.4,0.2-0.4,0.4s0.2,0.4,0.4,0.4h0.8c0.2,0,0.4-0.2,0.4-0.4
	S6.1,3.5,5.9,3.5z M5.9,5H5.1C4.9,5,4.7,5.2,4.7,5.4c0,0.2,0.2,0.4,0.4,0.4h0.8c0.2,0,0.4-0.2,0.4-0.4C6.3,5.2,6.1,5,5.9,5z M0,7
	c0,0.4,0.3,0.7,0.7,0.7h6.7C7.7,7.7,8,7.4,8,7V1.7C8,1.3,7.7,1,7.3,1h-2V0.7c0-0.2-0.2-0.4-0.4-0.4H3c-0.2,0-0.4,0.2-0.4,0.4V1h-2
	C0.3,1,0,1.3,0,1.7V7z M1.2,1.8h1.5v0.3c0,0.2,0.2,0.4,0.4,0.4H5c0.2,0,0.4-0.2,0.4-0.4V1.8h1.5C7,1.8,7.2,2,7.2,2.2v4.3
	c0,0.2-0.2,0.4-0.4,0.4H1.2C1,6.8,0.8,6.7,0.8,6.5V2.2C0.8,2,1,1.8,1.2,1.8z"/>
</svg>
