<?xml version="1.0" encoding="utf-8"?>
<!-- Generator: Adobe Illustrator 16.0.0, SVG Export Plug-In . SVG Version: 6.00 Build 0)  -->
<!DOCTYPE svg PUBLIC "-//W3C//DTD SVG 1.1//EN" "http://www.w3.org/Graphics/SVG/1.1/DTD/svg11.dtd">
<svg version="1.1" id="Calque_1" xmlns="http://www.w3.org/2000/svg" xmlns:xlink="http://www.w3.org/1999/xlink" x="0px" y="0px"
	 width="8px" height="8px" viewBox="0 0 8 8" enable-background="new 0 0 8 8" xml:space="preserve">
<g>
	<g>
		<path fill="#FFFFFF" d="M8,6.5C8,7.3,7.3,8,6.5,8h-5C0.7,8,0,7.3,0,6.5v-5C0,0.7,0.7,0,1.5,0h5C7.3,0,8,0.7,8,1.5V6.5z M6.8,2.9
			c0.1-0.1,0.1-0.3,0-0.5L6.2,1.9c-0.1-0.1-0.3-0.1-0.5,0L3.3,4.3L2.2,3.2c-0.1-0.1-0.3-0.1-0.5,0L1.2,3.8c-0.1,0.1-0.1,0.3,0,0.5
			l1.9,1.9c0.1,0.1,0.3,0.1,0.5,0L6.8,2.9z"/>
	</g>
</g>
</svg>
