<?xml version="1.0" encoding="utf-8"?>
<!-- Generator: Adobe Illustrator 16.0.0, SVG Export Plug-In . SVG Version: 6.00 Build 0)  -->
<!DOCTYPE svg PUBLIC "-//W3C//DTD SVG 1.1//EN" "http://www.w3.org/Graphics/SVG/1.1/DTD/svg11.dtd">
<svg version="1.1" id="Calque_1" xmlns="http://www.w3.org/2000/svg" xmlns:xlink="http://www.w3.org/1999/xlink" x="0px" y="0px"
	 width="8px" height="8px" viewBox="0 0 8 8" enable-background="new 0 0 8 8" xml:space="preserve">
<path fill="#FFFFFF" d="M2.3,6.8V4.5H1.5v2.3L2.3,6.8z M0.6,3.2C0.3,3.2,0,3.5,0,3.9v3.4C0,7.7,0.3,8,0.7,8h6.7C7.7,8,8,7.7,8,7.3
	V3.9c0-0.4-0.3-0.7-0.7-0.7H0.6z M6.9,4C7,4,7.2,4.2,7.2,4.4v2.4C7.2,7,7,7.2,6.8,7.2H1.2C1,7.1,0.8,7,0.8,6.8V4.4
	C0.8,4.2,1,4,1.2,4H6.9z"/>
</svg>
