<?xml version="1.0" encoding="utf-8"?>
<!-- Generator: Adobe Illustrator 16.0.0, SVG Export Plug-In . SVG Version: 6.00 Build 0)  -->
<!DOCTYPE svg PUBLIC "-//W3C//DTD SVG 1.1//EN" "http://www.w3.org/Graphics/SVG/1.1/DTD/svg11.dtd">
<svg version="1.1" id="Calque_1" xmlns="http://www.w3.org/2000/svg" xmlns:xlink="http://www.w3.org/1999/xlink" x="0px" y="0px"
	 width="8px" height="8px" viewBox="0 0 8 8" enable-background="new 0 0 8 8" xml:space="preserve">
<g>
	<g>
		<path fill="#FFFFFF" d="M7.2,2.8c-0.7,0.5-1.4,1-2.1,1.5C4.9,4.4,4.4,4.9,4,4.9h0h0c-0.4,0-0.9-0.4-1.1-0.6
			c-0.7-0.5-1.4-1-2.1-1.5C0.5,2.6,0,2.1,0,1.7c0-0.4,0.2-0.8,0.7-0.8h6.6C7.7,0.9,8,1.2,8,1.6C8,2.1,7.6,2.5,7.2,2.8z M8,6.4
			c0,0.4-0.3,0.7-0.7,0.7H0.7C0.3,7.1,0,6.8,0,6.4V2.9C0.1,3,0.3,3.2,0.5,3.3c0.7,0.5,1.5,1,2.2,1.5C3,5.1,3.5,5.4,4,5.4h0h0
			c0.5,0,1-0.3,1.3-0.6c0.7-0.5,1.5-1,2.2-1.5C7.7,3.2,7.9,3,8,2.9V6.4z"/>
	</g>
</g>
</svg>
