<?xml version="1.0" encoding="utf-8"?>
<!-- Generator: Adobe Illustrator 16.0.0, SVG Export Plug-In . SVG Version: 6.00 Build 0)  -->
<!DOCTYPE svg PUBLIC "-//W3C//DTD SVG 1.1//EN" "http://www.w3.org/Graphics/SVG/1.1/DTD/svg11.dtd">
<svg version="1.1" id="Calque_1" xmlns="http://www.w3.org/2000/svg" xmlns:xlink="http://www.w3.org/1999/xlink" x="0px" y="0px"
	 width="8px" height="8px" viewBox="0 0 8 8" enable-background="new 0 0 8 8" xml:space="preserve">
<g>
	<g>
		<path fill="#FFFFFF" d="M8,1.7C8,1.8,7.8,2,7.7,2H0.3C0.2,2,0,1.8,0,1.7V1c0-0.2,0.2-0.3,0.3-0.3h7.3C7.8,0.7,8,0.8,8,1V1.7z
			 M8,4.3c0,0.2-0.2,0.3-0.3,0.3H0.3C0.2,4.7,0,4.5,0,4.3V3.7c0-0.2,0.2-0.3,0.3-0.3h7.3C7.8,3.3,8,3.5,8,3.7V4.3z M8,7
			c0,0.2-0.2,0.3-0.3,0.3H0.3C0.2,7.3,0,7.2,0,7V6.3C0,6.2,0.2,6,0.3,6h7.3C7.8,6,8,6.2,8,6.3V7z"/>
	</g>
</g>
</svg>
