<?xml version="1.0" encoding="utf-8"?>
<!-- Generator: Adobe Illustrator 16.0.0, SVG Export Plug-In . SVG Version: 6.00 Build 0)  -->
<!DOCTYPE svg PUBLIC "-//W3C//DTD SVG 1.1//EN" "http://www.w3.org/Graphics/SVG/1.1/DTD/svg11.dtd">
<svg version="1.1" id="Calque_1" xmlns="http://www.w3.org/2000/svg" xmlns:xlink="http://www.w3.org/1999/xlink" x="0px" y="0px"
	 width="8px" height="8px" viewBox="0 0 8 8" enable-background="new 0 0 8 8" xml:space="preserve">
<g>
	<g>
		<path fill="#FFFFFF" d="M8,7c0,0.2-0.2,0.4-0.4,0.4H6.1C5.9,7.4,5.7,7.2,5.7,7V5.6c0-0.2,0.2-0.4,0.4-0.4h0.4V4.3H4.3v0.9h0.4
			c0.2,0,0.4,0.2,0.4,0.4V7c0,0.2-0.2,0.4-0.4,0.4H3.3C3,7.4,2.9,7.2,2.9,7V5.6c0-0.2,0.2-0.4,0.4-0.4h0.4V4.3H1.4v0.9h0.4
			c0.2,0,0.4,0.2,0.4,0.4V7c0,0.2-0.2,0.4-0.4,0.4H0.4C0.2,7.4,0,7.2,0,7V5.6c0-0.2,0.2-0.4,0.4-0.4h0.4V4.3c0-0.3,0.3-0.6,0.6-0.6
			h2.3V2.9H3.3C3,2.9,2.9,2.7,2.9,2.4V1c0-0.2,0.2-0.4,0.4-0.4h1.4C5,0.6,5.1,0.8,5.1,1v1.4c0,0.2-0.2,0.4-0.4,0.4H4.3v0.9h2.3
			c0.3,0,0.6,0.3,0.6,0.6v0.9h0.4C7.8,5.1,8,5.3,8,5.6V7z"/>
	</g>
</g>
</svg>
