<?xml version="1.0" encoding="utf-8"?>
<!-- Generator: Adobe Illustrator 16.0.0, SVG Export Plug-In . SVG Version: 6.00 Build 0)  -->
<!DOCTYPE svg PUBLIC "-//W3C//DTD SVG 1.1//EN" "http://www.w3.org/Graphics/SVG/1.1/DTD/svg11.dtd">
<svg version="1.1" id="Calque_1" xmlns="http://www.w3.org/2000/svg" xmlns:xlink="http://www.w3.org/1999/xlink" x="0px" y="0px"
	 width="8px" height="8px" viewBox="0 0 8 8" enable-background="new 0 0 8 8" xml:space="preserve">
<g>
	<g>
		<path fill="#FFFFFF" d="M8,6.5C8,7.3,7.3,8,6.5,8h-5C0.7,8,0,7.3,0,6.5v-5C0,0.7,0.7,0,1.5,0h5C7.3,0,8,0.7,8,1.5V6.5z M1.5,1.5
			c-0.1,0-0.1,0-0.1,0c0,0-0.1,0.1-0.1,0.1v0.7c0,0.1,0.1,0.2,0.2,0.2c2.2,0.1,3.9,1.8,4,4c0,0.1,0.1,0.2,0.2,0.2h0.7
			c0,0,0.1,0,0.1-0.1c0,0,0.1-0.1,0-0.1C6.4,3.8,4.2,1.6,1.5,1.5z M1.5,3.5c0,0-0.1,0-0.1,0c0,0-0.1,0.1-0.1,0.1v0.7
			c0,0.1,0.1,0.2,0.2,0.2c1.1,0.1,1.9,0.9,2,2c0,0.1,0.1,0.2,0.2,0.2h0.7c0,0,0.1,0,0.1-0.1s0.1-0.1,0-0.1C4.4,4.9,3.1,3.6,1.5,3.5z
			 M2,5.3C1.6,5.3,1.3,5.6,1.3,6c0,0.4,0.3,0.7,0.7,0.7S2.7,6.4,2.7,6C2.7,5.6,2.4,5.3,2,5.3z"/>
	</g>
</g>
</svg>
