<?xml version="1.0" encoding="utf-8"?>
<!-- Generator: Adobe Illustrator 16.0.0, SVG Export Plug-In . SVG Version: 6.00 Build 0)  -->
<!DOCTYPE svg PUBLIC "-//W3C//DTD SVG 1.1//EN" "http://www.w3.org/Graphics/SVG/1.1/DTD/svg11.dtd">
<svg version="1.1" id="Calque_1" xmlns="http://www.w3.org/2000/svg" xmlns:xlink="http://www.w3.org/1999/xlink" x="0px" y="0px"
	 width="8px" height="8px" viewBox="0 0 8 8" enable-background="new 0 0 8 8" xml:space="preserve">
<g>
	<g>
		<path fill="#FFFFFF" d="M6.5,8C6.1,8,5.7,8,5.2,8C5.1,8,5,7.8,5,7.7c0-0.5,0.5-0.3,0.7-0.4c0.2-0.1,0.2-0.5,0.2-0.7l0-2
			c0-0.1,0-0.1,0-0.2c-0.1,0-0.2,0-0.2,0H2.4c-0.1,0-0.2,0-0.2,0c0,0.1,0,0.1,0,0.2l0,1.9c0,0.2,0,0.7,0.2,0.9
			c0.2,0.2,0.8-0.1,0.8,0.4C3.1,7.8,3.1,8,2.9,8C2.4,8,2,8,1.6,8C1.2,8,0.7,8,0.3,8C0.2,8,0.1,7.8,0.1,7.7c0-0.5,0.4-0.3,0.7-0.4
			c0.2-0.1,0.2-0.6,0.2-0.7l0-0.3V1.9c0-0.3,0-1.1-0.2-1.2C0.5,0.6,0,0.8,0,0.4C0,0.2,0.1,0,0.2,0c0.4,0,0.9,0,1.3,0
			C2,0,2.4,0,2.8,0C2.9,0,3,0.2,3,0.4c0,0.4-0.5,0.2-0.7,0.4C2.1,0.9,2.1,1.4,2.1,1.6l0,1.7c0,0.1,0,0.1,0,0.2c0.1,0,0.1,0,0.2,0
			h3.4c0.1,0,0.1,0,0.2,0c0-0.1,0-0.1,0-0.2l0-1.7c0-0.2,0-0.7-0.2-0.8C5.5,0.6,5,0.8,5,0.4C5,0.2,5.1,0,5.2,0c0.4,0,0.8,0,1.3,0
			c0.4,0,0.8,0,1.2,0C7.9,0,8,0.2,8,0.4c0,0.5-0.5,0.2-0.7,0.4C7.1,0.9,7.1,1.4,7.1,1.6l0,4.9c0,0.2,0,0.6,0.2,0.7
			C7.5,7.4,8,7.2,8,7.6C8,7.8,7.9,8,7.8,8C7.3,8,6.9,8,6.5,8z"/>
	</g>
</g>
</svg>
