<?xml version="1.0" encoding="utf-8"?>
<!-- Generator: Adobe Illustrator 16.0.0, SVG Export Plug-In . SVG Version: 6.00 Build 0)  -->
<!DOCTYPE svg PUBLIC "-//W3C//DTD SVG 1.1//EN" "http://www.w3.org/Graphics/SVG/1.1/DTD/svg11.dtd">
<svg version="1.1" id="Calque_1" xmlns="http://www.w3.org/2000/svg" xmlns:xlink="http://www.w3.org/1999/xlink" x="0px" y="0px"
	 width="8px" height="8px" viewBox="0 0 8 8" enable-background="new 0 0 8 8" xml:space="preserve">
<g>
	<g>
		<path fill="#FFFFFF" d="M7.9,2.3H7.4C7.3,1.9,7.1,1.6,6.9,1.2C6.6,0.8,6.4,0.6,6.2,0.6c-0.1,0-0.3,0-0.4,0s-0.3,0-0.5,0H5v6.3
			C5,6.9,5,7,5.1,7.1s0.1,0.2,0.3,0.2c0.1,0,0.2,0.1,0.4,0.1c0.2,0,0.3,0.1,0.5,0.1V8H1.8V7.6c0.1,0,0.3,0,0.5,0s0.3,0,0.4-0.1
			c0.1-0.1,0.2-0.1,0.3-0.2C3,7.1,3,7,3,6.8V0.5H2.7c-0.1,0-0.3,0-0.5,0s-0.3,0-0.4,0c-0.2,0-0.5,0.2-0.7,0.6
			C0.9,1.6,0.7,1.9,0.6,2.3H0.1V0h7.8V2.3z"/>
	</g>
</g>
</svg>
